<svg width="146" height="85" viewBox="0 0 146 85" fill="none" xmlns="http://www.w3.org/2000/svg">
<ellipse cx="72" cy="42.5" rx="38" ry="35.5" fill="#362645"/>
<path d="M72.8775 13.6486C88.5637 13.6486 101.326 26.5717 101.326 42.4559C101.326 58.3405 88.5637 71.2635 72.8775 71.2635C57.1913 71.2635 44.429 58.3405 44.429 42.4562C44.429 26.5717 57.1913 13.6486 72.8775 13.6486ZM72.8775 72.7249C89.3593 72.7249 102.768 59.1464 102.768 42.4562C102.768 25.766 89.3593 12.1872 72.8775 12.1872C56.3953 12.1872 42.9864 25.766 42.9864 42.4562C42.9864 59.1464 56.3953 72.7249 72.8775 72.7249Z" fill="#EBE4F2"/>
<path d="M51.7558 27.7898C51.5583 28.6373 51.4428 29.5168 51.4428 30.4255C51.4428 30.6056 51.4613 30.781 51.4694 30.9592C49.6647 34.3914 48.6376 38.304 48.6376 42.4563C48.6376 49.0127 51.1589 55.1769 55.7372 59.813C60.3155 64.4491 66.4025 67.0023 72.8772 67.0023C86.2431 67.0023 97.1172 55.9908 97.1172 42.4561C97.1172 28.9213 86.2431 17.9098 72.8772 17.9098C70.1485 17.9098 67.5269 18.3756 65.0774 19.2211C64.3259 19.0618 63.5479 18.9758 62.7497 18.9758C62.4609 18.9758 62.1775 18.9979 61.8941 19.0195C65.2249 17.4124 68.9485 16.51 72.8772 16.51C87.0054 16.51 98.5001 28.1493 98.5001 42.4561C98.5001 56.7628 87.0054 68.4021 72.8772 68.4021C66.0331 68.4024 59.5989 65.7034 54.7593 60.8029C49.9202 55.9025 47.2547 49.3868 47.2547 42.4563C47.2547 37.0166 48.9196 31.9651 51.7558 27.7898ZM57.7349 57.7899C61.7794 61.8854 67.1571 64.141 72.8772 64.141C84.6852 64.141 94.2916 54.413 94.2916 42.4558C94.2916 30.4989 84.6852 20.7711 72.8772 20.7711C71.6488 20.7711 70.4462 20.8822 69.2737 21.0843C68.7094 20.6794 68.1068 20.3285 67.4724 20.0324C69.2061 19.6038 71.0149 19.3713 72.8772 19.3712C85.4475 19.3712 95.6745 29.7269 95.6745 42.4558C95.6745 55.1849 85.4475 65.5409 72.8772 65.5409C66.7878 65.5411 61.0628 63.1398 56.757 58.7796C52.4512 54.4196 50.0798 48.6224 50.0798 42.4563C50.0798 39.2812 50.7165 36.2541 51.8668 33.4982C52.0552 34.1836 52.3053 34.8411 52.6101 35.4683C51.8702 37.6626 51.4627 40.0115 51.4627 42.4563C51.4627 48.2486 53.6898 53.694 57.7349 57.7899ZM55.9716 39.5743C57.8617 41.0126 60.2033 41.8752 62.7496 41.8752C68.9943 41.8752 74.0566 36.749 74.0566 30.4255C74.0566 28.5004 73.5822 26.6892 72.7533 25.0969C72.7948 25.0966 72.8356 25.0937 72.8772 25.0937C77.4569 25.0935 81.7627 26.8993 85.001 30.1786C88.2398 33.458 90.0234 37.818 90.0234 42.4556C90.0234 52.029 82.3317 59.8179 72.8772 59.8181C68.2974 59.8184 63.9916 58.0125 60.7533 54.7333C57.5145 51.4539 55.731 47.0939 55.731 42.4563C55.731 41.4742 55.8161 40.5123 55.9716 39.5743ZM53.609 37.1456C53.9457 37.6144 54.3094 38.0619 54.711 38.4732C54.4365 39.7579 54.2883 41.0896 54.2883 42.4563C54.2883 52.8356 62.627 61.2797 72.8772 61.2797C83.1273 61.2795 91.4661 52.8351 91.4661 42.4558C91.4661 37.4279 89.5325 32.7007 86.0218 29.1454C82.5106 25.5903 77.8426 23.6323 72.8772 23.6323C72.5352 23.6323 72.1957 23.6433 71.8583 23.6618C71.5219 23.1981 71.1609 22.7539 70.7609 22.3471C71.4566 22.2725 72.1622 22.2325 72.8772 22.2325C78.212 22.2323 83.2271 24.3359 86.9992 28.1557C90.7712 31.9752 92.849 37.0539 92.849 42.4558C92.849 53.6071 83.8896 62.6794 72.8772 62.6796C61.8647 62.6796 52.9054 53.6076 52.9054 42.4563C52.9054 40.6185 53.1532 38.8391 53.609 37.1456ZM72.8776 69.8638C87.8015 69.8638 99.9427 57.5687 99.9427 42.4561C99.9427 27.3437 87.8015 15.0486 72.8776 15.0486C57.9533 15.0486 45.812 27.3437 45.812 42.4563C45.812 57.5687 57.9533 69.8638 72.8776 69.8638Z" fill="#EBE4F2"/>
<path d="M72.2142 5.12524C93.048 5.12524 109.997 21.823 109.997 42.3474C109.997 62.8717 93.048 79.5695 72.2142 79.5695C51.3804 79.5695 34.4309 62.8717 34.4309 42.3474C34.431 21.823 51.3805 5.12524 72.2142 5.12524ZM72.5953 84.6948C102.172 84.6948 129.694 68.975 144.421 43.6703L145.191 42.3475L144.421 41.0247C129.694 15.7197 102.172 0 72.5958 0C43.0194 0 15.4972 15.7197 0.769634 41.0244L0 42.3472L0.769634 43.67C15.4972 68.975 43.0194 84.6948 72.5953 84.6948Z" fill="#362645"/>
<path d="M72.9035 8.94765C91.6833 8.94765 106.962 23.9992 106.962 42.5C106.962 61.0008 91.6832 76.0523 72.9035 76.0523C54.1238 76.0523 38.8453 61.0008 38.8453 42.5C38.8454 23.9992 54.1238 8.94765 72.9035 8.94765ZM73.247 80.6723C99.9073 80.6723 124.716 66.5024 137.992 43.6924L138.685 42.5001L137.992 41.3077C124.716 18.4976 99.9078 4.32771 73.2475 4.32771C46.5871 4.32771 21.7783 18.4976 8.50274 41.3075L7.80899 42.4998L8.50274 43.6922C21.7783 66.5024 46.587 80.6723 73.247 80.6723Z" fill="#EBE4F2"/>
</svg>
