<svg width="267" height="138" viewBox="0 0 267 138" fill="none" xmlns="http://www.w3.org/2000/svg">
<path d="M2.38 80.6H4.62V104.9H15.38V107H2.38V80.6ZM27.9534 80.6H30.4134L39.8734 107H37.4934L35.0334 100.16H23.3534L20.8734 107H18.4534L27.9534 80.6ZM24.0334 98.06H34.3734L29.2134 83.42H29.1534L24.0334 98.06ZM42.1459 80.6H49.9059V100.28H58.9259V107H42.1459V80.6ZM76.0706 80.6H83.8106V96.7C83.8106 98.8733 83.3906 100.767 82.5506 102.38C81.7106 103.993 80.4706 105.247 78.8306 106.14C77.204 107.033 75.1973 107.48 72.8106 107.48C70.424 107.48 68.404 107.033 66.7506 106.14C65.1106 105.247 63.8706 103.993 63.0306 102.38C62.1906 100.767 61.7706 98.8733 61.7706 96.7V80.6H69.5106V96.28C69.5106 97.2533 69.6306 98.0533 69.8706 98.68C70.1106 99.2933 70.4706 99.7467 70.9506 100.04C71.444 100.333 72.064 100.48 72.8106 100.48C73.544 100.48 74.1506 100.333 74.6306 100.04C75.1106 99.7467 75.4706 99.2933 75.7106 98.68C75.9506 98.0533 76.0706 97.2533 76.0706 96.28V80.6ZM94.7291 87.64L95.3091 87.74V107H87.5691V80.6H98.0291L106.649 99.8L106.069 99.92V80.6H113.809V107H103.289L94.7291 87.64ZM117.725 80.6H135.445V87.32H125.465V90.52H135.445V97.02H125.465V100.28H135.445V107H117.725V80.6ZM143.906 87.32H138.206V80.6H157.346V87.32H151.646V107H143.906V87.32ZM165.156 87.32H159.456V80.6H178.596V87.32H172.896V107H165.156V87.32ZM181.436 80.6H199.156V87.32H189.176V90.52H199.156V97.02H189.176V100.28H199.156V107H181.436V80.6ZM202.877 80.6H214.717C216.317 80.6 217.73 80.94 218.957 81.62C220.184 82.2867 221.144 83.2467 221.837 84.5C222.53 85.74 222.877 87.2133 222.877 88.92C222.877 90.6133 222.597 91.9867 222.037 93.04C221.49 94.08 220.83 94.86 220.057 95.38C219.284 95.9 218.57 96.2333 217.917 96.38L224.237 107H215.557L210.117 96.98H210.637V107H202.877V80.6ZM210.637 91.74H211.917C212.624 91.74 213.297 91.5733 213.937 91.24C214.59 90.9067 214.917 90.22 214.917 89.18C214.917 88.14 214.604 87.4533 213.977 87.12C213.35 86.7867 212.684 86.62 211.977 86.62H210.637V91.74ZM227.924 80.6H235.664V107H227.924V80.6ZM239.6 80.6H257.32V87.32H247.34V90.52H257.32V97.02H247.34V100.28H257.32V107H239.6V80.6ZM2.3 110.6H7.74C10.5533 110.6 12.86 111.167 14.66 112.3C16.46 113.42 17.7867 114.973 18.64 116.96C19.5067 118.947 19.94 121.22 19.94 123.78C19.94 126.353 19.5133 128.633 18.66 130.62C17.8067 132.607 16.48 134.167 14.68 135.3C12.88 136.433 10.5667 137 7.74 137H2.3V110.6ZM4.52 112.72V134.88H7.56C9.90667 134.88 11.8133 134.407 13.28 133.46C14.76 132.513 15.8467 131.213 16.54 129.56C17.2467 127.893 17.6067 125.98 17.62 123.82C17.6333 121.66 17.2933 119.747 16.6 118.08C15.9067 116.413 14.8133 115.107 13.32 114.16C11.84 113.2 9.92 112.72 7.56 112.72H4.52ZM41.7666 110.6H44.0066V127.08C44.0066 129.253 43.5666 131.12 42.6866 132.68C41.8199 134.227 40.6466 135.413 39.1666 136.24C37.6866 137.067 36.0266 137.48 34.1866 137.48C32.3599 137.48 30.6999 137.067 29.2066 136.24C27.7132 135.413 26.5266 134.227 25.6466 132.68C24.7666 131.12 24.3266 129.253 24.3266 127.08V110.6H26.5666V126.96C26.5666 128.653 26.9066 130.127 27.5866 131.38C28.2666 132.633 29.1799 133.607 30.3266 134.3C31.4866 134.993 32.7732 135.34 34.1866 135.34C35.5999 135.34 36.8732 134.993 38.0066 134.3C39.1532 133.607 40.0666 132.633 40.7466 131.38C41.4266 130.127 41.7666 128.653 41.7666 126.96V110.6ZM62.8959 129.8C63.8293 129.8 64.7293 129.653 65.5959 129.36C66.4759 129.067 67.1559 128.773 67.6359 128.48L70.9359 135.04C70.2959 135.573 69.2093 136.113 67.6759 136.66C66.1426 137.207 64.3359 137.48 62.2559 137.48C60.3093 137.48 58.4693 137.147 56.7359 136.48C55.0026 135.8 53.4626 134.847 52.1159 133.62C50.7826 132.393 49.7359 130.953 48.9759 129.3C48.2159 127.633 47.8359 125.813 47.8359 123.84C47.8359 121.867 48.2159 120.047 48.9759 118.38C49.7359 116.7 50.7826 115.247 52.1159 114.02C53.4493 112.78 54.9826 111.82 56.7159 111.14C58.4626 110.46 60.3093 110.12 62.2559 110.12C64.3359 110.12 66.1426 110.393 67.6759 110.94C69.2093 111.487 70.2959 112.027 70.9359 112.56L67.6359 119.12C67.1559 118.827 66.4759 118.533 65.5959 118.24C64.7293 117.947 63.8293 117.8 62.8959 117.8C61.6293 117.8 60.5693 117.98 59.7159 118.34C58.8626 118.7 58.1759 119.18 57.6559 119.78C57.1493 120.367 56.7826 121.013 56.5559 121.72C56.3426 122.413 56.2359 123.1 56.2359 123.78C56.2359 124.473 56.3426 125.173 56.5559 125.88C56.7826 126.587 57.1493 127.24 57.6559 127.84C58.1759 128.427 58.8626 128.9 59.7159 129.26C60.5693 129.62 61.6293 129.8 62.8959 129.8ZM81.8088 123.78C81.8088 124.967 82.0488 126.053 82.5288 127.04C83.0088 128.013 83.6821 128.793 84.5488 129.38C85.4154 129.953 86.4288 130.24 87.5888 130.24C88.7621 130.24 89.7821 129.953 90.6488 129.38C91.5154 128.793 92.1888 128.013 92.6688 127.04C93.1488 126.053 93.3888 124.967 93.3888 123.78C93.3888 122.593 93.1488 121.513 92.6688 120.54C92.1888 119.567 91.5154 118.787 90.6488 118.2C89.7821 117.613 88.7621 117.32 87.5888 117.32C86.4288 117.32 85.4154 117.613 84.5488 118.2C83.6821 118.787 83.0088 119.567 82.5288 120.54C82.0488 121.513 81.8088 122.593 81.8088 123.78ZM73.7288 123.78C73.7288 121.86 74.0754 120.073 74.7688 118.42C75.4754 116.753 76.4554 115.3 77.7088 114.06C78.9621 112.82 80.4288 111.853 82.1088 111.16C83.8021 110.467 85.6288 110.12 87.5888 110.12C89.5888 110.12 91.4288 110.467 93.1088 111.16C94.8021 111.853 96.2688 112.82 97.5088 114.06C98.7621 115.3 99.7288 116.753 100.409 118.42C101.102 120.073 101.449 121.86 101.449 123.78C101.449 125.713 101.115 127.513 100.449 129.18C99.7821 130.833 98.8288 132.287 97.5888 133.54C96.3621 134.78 94.9021 135.747 93.2088 136.44C91.5154 137.133 89.6421 137.48 87.5888 137.48C85.4821 137.48 83.5754 137.133 81.8688 136.44C80.1754 135.747 78.7221 134.78 77.5088 133.54C76.2954 132.287 75.3621 130.833 74.7088 129.18C74.0554 127.513 73.7288 125.713 73.7288 123.78ZM104.643 110.6H112.383V137H104.643V110.6ZM123.479 117.64L124.059 117.74V137H116.319V110.6H126.779L135.399 129.8L134.819 129.92V110.6H142.559V137H132.039L123.479 117.64Z" fill="currentColor"/>
<path d="M133.638 10.4469C148.98 10.4469 161.461 22.9084 161.461 38.2254C161.461 53.5427 148.98 66.0041 133.638 66.0041C118.297 66.0041 105.815 53.5427 105.815 38.2256C105.815 22.9084 118.297 10.4469 133.638 10.4469ZM133.638 67.4133C149.758 67.4133 162.872 54.3197 162.872 38.2256C162.872 22.1315 149.758 9.0377 133.638 9.0377C117.518 9.0377 104.404 22.1315 104.404 38.2256C104.404 54.3197 117.518 67.4133 133.638 67.4133Z" fill="currentColor"/>
<path d="M112.981 24.0831C112.788 24.9003 112.675 25.7484 112.675 26.6246C112.675 26.7983 112.693 26.9674 112.701 27.1392C110.936 30.4489 109.931 34.2217 109.931 38.2257C109.931 44.548 112.397 50.492 116.875 54.9625C121.352 59.4331 127.306 61.8951 133.638 61.8951C146.71 61.8951 157.345 51.2769 157.345 38.2255C157.345 25.1741 146.71 14.5559 133.638 14.5559C130.969 14.5559 128.405 15.005 126.01 15.8204C125.275 15.6667 124.514 15.5838 123.733 15.5838C123.451 15.5838 123.174 15.6052 122.896 15.626C126.154 14.0763 129.796 13.2061 133.638 13.2061C147.456 13.2061 158.698 24.4297 158.698 38.2255C158.698 52.0213 147.456 63.2449 133.638 63.2449C126.944 63.2451 120.652 60.6426 115.918 55.9171C111.186 51.1917 108.579 44.9087 108.579 38.2257C108.579 32.9803 110.207 28.1092 112.981 24.0831ZM118.829 53.0117C122.784 56.961 128.044 59.136 133.638 59.136C145.187 59.136 154.582 49.7554 154.582 38.2252C154.582 26.6953 145.187 17.315 133.638 17.315C132.437 17.315 131.261 17.4221 130.114 17.6171C129.562 17.2266 128.973 16.8882 128.352 16.6026C130.048 16.1893 131.817 15.9652 133.638 15.9651C145.932 15.9651 155.934 25.951 155.934 38.2252C155.934 50.4998 145.932 60.4859 133.638 60.4859C127.683 60.4861 122.083 58.1705 117.872 53.966C113.661 49.7617 111.342 44.1716 111.342 38.2257C111.342 35.164 111.965 32.245 113.09 29.5876C113.274 30.2485 113.518 30.8825 113.816 31.4873C113.093 33.6032 112.694 35.8682 112.694 38.2257C112.694 43.8112 114.872 49.0621 118.829 53.0117ZM117.104 35.4466C118.953 36.8336 121.243 37.6654 123.733 37.6654C129.841 37.6654 134.792 32.7223 134.792 26.6246C134.792 24.7682 134.328 23.0218 133.517 21.4863C133.558 21.486 133.597 21.4832 133.638 21.4832C138.117 21.483 142.328 23.2244 145.495 26.3865C148.663 29.5488 150.407 33.7531 150.407 38.225C150.407 47.4566 142.885 54.9673 133.638 54.9675C129.159 54.9677 124.948 53.2263 121.781 50.0643C118.613 46.902 116.869 42.6977 116.869 38.2257C116.869 37.2787 116.952 36.3512 117.104 35.4466ZM114.793 33.1047C115.123 33.5568 115.478 33.9882 115.871 34.3848C115.603 35.6237 115.458 36.9079 115.458 38.2257C115.458 48.2344 123.613 56.3769 133.638 56.3769C143.663 56.3767 151.818 48.2339 151.818 38.2252C151.818 33.3769 149.927 28.8186 146.494 25.3902C143.06 21.9621 138.494 20.0741 133.638 20.0741C133.304 20.0741 132.972 20.0846 132.642 20.1025C132.313 19.6554 131.96 19.227 131.568 18.8347C132.249 18.7628 132.939 18.7242 133.638 18.7242C138.856 18.724 143.761 20.7525 147.45 24.4358C151.139 28.1189 153.171 33.0162 153.171 38.2252C153.171 48.9783 144.409 57.7266 133.638 57.7268C122.868 57.7268 114.105 48.9788 114.105 38.2257C114.105 36.4536 114.348 34.7377 114.793 33.1047ZM133.639 64.6544C148.234 64.6544 160.109 52.7984 160.109 38.2255C160.109 23.6528 148.234 11.7969 133.639 11.7969C119.042 11.7969 107.168 23.6528 107.168 38.2257C107.168 52.7984 119.042 64.6544 133.639 64.6544Z" fill="currentColor"/>
<path d="M133.664 4.53857C152.031 4.53857 166.973 19.325 166.973 37.5C166.973 55.675 152.031 70.4614 133.664 70.4614C115.297 70.4614 100.354 55.675 100.354 37.5C100.354 19.325 115.297 4.53857 133.664 4.53857ZM134 75C160.074 75 184.338 61.0797 197.322 38.6715L198 37.5001L197.322 36.3288C184.338 13.9203 160.075 0 134 0C107.926 0 83.6623 13.9203 70.6785 36.3285L70 37.4999L70.6785 38.6712C83.6623 61.0797 107.926 75 134 75Z" fill="currentColor"/>
</svg>
