<svg width="261" height="157" viewBox="0 0 261 157" fill="none" xmlns="http://www.w3.org/2000/svg">
<circle cx="187.5" cy="41.5" r="38.5" fill="#352F2F"/>
<path d="M187.891 12.4614C203.577 12.4614 216.339 25.3844 216.339 41.2687C216.339 57.1533 203.577 70.0763 187.891 70.0763C172.205 70.0763 159.443 57.1533 159.443 41.269C159.443 25.3844 172.205 12.4614 187.891 12.4614ZM187.891 71.5377C204.373 71.5377 217.782 57.9592 217.782 41.269C217.782 24.5788 204.373 11 187.891 11C171.409 11 158 24.5788 158 41.269C158 57.9592 171.409 71.5377 187.891 71.5377Z" fill="#EFD8D1"/>
<path d="M166.944 26.7412C166.746 27.5887 166.631 28.4682 166.631 29.3768C166.631 29.557 166.649 29.7324 166.657 29.9106C164.853 33.3428 163.826 37.2554 163.826 41.4077C163.826 47.9641 166.347 54.1283 170.925 58.7644C175.503 63.4005 181.59 65.9537 188.065 65.9537C201.431 65.9537 212.305 54.9422 212.305 41.4074C212.305 27.8727 201.431 16.8612 188.065 16.8612C185.337 16.8612 182.715 17.3269 180.265 18.1725C179.514 18.0132 178.736 17.9271 177.938 17.9271C177.649 17.9271 177.365 17.9493 177.082 17.9709C180.413 16.3638 184.136 15.4614 188.065 15.4614C202.193 15.4614 213.688 27.1007 213.688 41.4074C213.688 55.7142 202.193 67.3535 188.065 67.3535C181.221 67.3537 174.787 64.6548 169.947 59.7543C165.108 54.8539 162.443 48.3381 162.443 41.4077C162.443 35.968 164.108 30.9165 166.944 26.7412ZM172.923 56.7413C176.967 60.8368 182.345 63.0924 188.065 63.0924C199.873 63.0924 209.48 53.3644 209.48 41.4072C209.48 29.4503 199.873 19.7225 188.065 19.7225C186.837 19.7225 185.634 19.8336 184.462 20.0357C183.897 19.6308 183.295 19.2799 182.66 18.9838C184.394 18.5551 186.203 18.3227 188.065 18.3226C200.635 18.3226 210.862 28.6783 210.862 41.4072C210.862 54.1363 200.635 64.4923 188.065 64.4923C181.976 64.4925 176.251 62.0912 171.945 57.731C167.639 53.371 165.268 47.5738 165.268 41.4077C165.268 38.2326 165.904 35.2055 167.055 32.4496C167.243 33.135 167.493 33.7925 167.798 34.4197C167.058 36.614 166.651 38.9629 166.651 41.4077C166.651 47.2 168.878 52.6454 172.923 56.7413ZM171.16 38.5257C173.05 39.9639 175.391 40.8266 177.938 40.8266C184.182 40.8266 189.245 35.7004 189.245 29.3769C189.245 27.4517 188.77 25.6406 187.941 24.0483C187.983 24.048 188.024 24.0451 188.065 24.0451C192.645 24.0449 196.951 25.8507 200.189 29.13C203.428 32.4094 205.211 36.7694 205.211 41.407C205.211 50.9804 197.52 58.7693 188.065 58.7695C183.485 58.7697 179.18 56.9639 175.941 53.6847C172.702 50.4053 170.919 46.0452 170.919 41.4077C170.919 40.4256 171.004 39.4637 171.16 38.5257ZM168.797 36.097C169.134 36.5658 169.497 37.0133 169.899 37.4245C169.624 38.7093 169.476 40.041 169.476 41.4077C169.476 51.787 177.815 60.2311 188.065 60.2311C198.315 60.2309 206.654 51.7865 206.654 41.4072C206.654 36.3793 204.72 31.6521 201.21 28.0968C197.699 24.5417 193.031 22.5837 188.065 22.5837C187.723 22.5837 187.384 22.5946 187.046 22.6132C186.71 22.1495 186.349 21.7053 185.949 21.2985C186.645 21.2239 187.35 21.1839 188.065 21.1839C193.4 21.1836 198.415 23.2873 202.187 27.1071C205.959 30.9265 208.037 36.0053 208.037 41.4072C208.037 52.5585 199.078 61.6308 188.065 61.631C177.053 61.631 168.093 52.559 168.093 41.4077C168.093 39.5699 168.341 37.7905 168.797 36.097ZM188.066 68.8152C202.989 68.8152 215.131 56.52 215.131 41.4074C215.131 26.2951 202.989 14 188.066 14C173.141 14 161 26.2951 161 41.4077C161 56.52 173.141 68.8152 188.066 68.8152Z" fill="#EFD8D1"/>
<path d="M187.214 5.12524C208.048 5.12524 224.997 21.8231 224.997 42.3474C224.997 62.8717 208.048 79.5695 187.214 79.5695C166.38 79.5695 149.431 62.8717 149.431 42.3474C149.431 21.8231 166.38 5.12524 187.214 5.12524ZM187.595 84.6948C217.172 84.6948 244.694 68.975 259.421 43.6703L260.191 42.3475L259.421 41.0247C244.694 15.7197 217.172 7.62939e-06 187.596 7.62939e-06C158.019 7.62939e-06 130.497 15.7197 115.77 41.0245L115 42.3472L115.77 43.67C130.497 68.975 158.019 84.6948 187.595 84.6948Z" fill="#352F2F"/>
<path d="M188.095 8.61994C206.874 8.61994 222.153 23.6715 222.153 42.1723C222.153 60.6731 206.874 75.7246 188.094 75.7246C169.315 75.7246 154.036 60.6731 154.036 42.1723C154.036 23.6715 169.315 8.61994 188.095 8.61994ZM188.438 80.3446C215.098 80.3446 239.907 66.1747 253.183 43.3647L253.876 42.1724L253.183 40.98C239.907 18.1699 215.099 4.00001 188.438 4.00001C161.778 4.00001 136.969 18.1699 123.694 40.9798L123 42.1721L123.694 43.3645C136.969 66.1747 161.778 80.3446 188.438 80.3446Z" fill="#EFD8D1"/>
<path d="M2.38 93.6H4.62V117.9H15.38V120H2.38V93.6ZM27.9534 93.6H30.4134L39.8734 120H37.4934L35.0334 113.16H23.3534L20.8734 120H18.4534L27.9534 93.6ZM24.0334 111.06H34.3734L29.2134 96.42H29.1534L24.0334 111.06ZM42.1459 93.6H49.9059V113.28H58.9259V120H42.1459V93.6ZM76.0706 93.6H83.8106V109.7C83.8106 111.873 83.3906 113.767 82.5506 115.38C81.7106 116.993 80.4706 118.247 78.8306 119.14C77.204 120.033 75.1973 120.48 72.8106 120.48C70.424 120.48 68.404 120.033 66.7506 119.14C65.1106 118.247 63.8706 116.993 63.0306 115.38C62.1906 113.767 61.7706 111.873 61.7706 109.7V93.6H69.5106V109.28C69.5106 110.253 69.6306 111.053 69.8706 111.68C70.1106 112.293 70.4706 112.747 70.9506 113.04C71.444 113.333 72.064 113.48 72.8106 113.48C73.544 113.48 74.1506 113.333 74.6306 113.04C75.1106 112.747 75.4706 112.293 75.7106 111.68C75.9506 111.053 76.0706 110.253 76.0706 109.28V93.6ZM94.7291 100.64L95.3091 100.74V120H87.5691V93.6H98.0291L106.649 112.8L106.069 112.92V93.6H113.809V120H103.289L94.7291 100.64ZM117.725 93.6H135.445V100.32H125.465V103.52H135.445V110.02H125.465V113.28H135.445V120H117.725V93.6ZM143.906 100.32H138.206V93.6H157.346V100.32H151.646V120H143.906V100.32ZM165.156 100.32H159.456V93.6H178.596V100.32H172.896V120H165.156V100.32ZM181.436 93.6H199.156V100.32H189.176V103.52H199.156V110.02H189.176V113.28H199.156V120H181.436V93.6ZM202.877 93.6H214.717C216.317 93.6 217.73 93.94 218.957 94.62C220.184 95.2867 221.144 96.2467 221.837 97.5C222.53 98.74 222.877 100.213 222.877 101.92C222.877 103.613 222.597 104.987 222.037 106.04C221.49 107.08 220.83 107.86 220.057 108.38C219.284 108.9 218.57 109.233 217.917 109.38L224.237 120H215.557L210.117 109.98H210.637V120H202.877V93.6ZM210.637 104.74H211.917C212.624 104.74 213.297 104.573 213.937 104.24C214.59 103.907 214.917 103.22 214.917 102.18C214.917 101.14 214.604 100.453 213.977 100.12C213.35 99.7867 212.684 99.62 211.977 99.62H210.637V104.74ZM227.924 93.6H235.664V120H227.924V93.6ZM239.6 93.6H257.32V100.32H247.34V103.52H257.32V110.02H247.34V113.28H257.32V120H239.6V93.6ZM2.3 123.6H7.74C10.5533 123.6 12.86 124.167 14.66 125.3C16.46 126.42 17.7867 127.973 18.64 129.96C19.5067 131.947 19.94 134.22 19.94 136.78C19.94 139.353 19.5133 141.633 18.66 143.62C17.8067 145.607 16.48 147.167 14.68 148.3C12.88 149.433 10.5667 150 7.74 150H2.3V123.6ZM4.52 125.72V147.88H7.56C9.90667 147.88 11.8133 147.407 13.28 146.46C14.76 145.513 15.8467 144.213 16.54 142.56C17.2467 140.893 17.6067 138.98 17.62 136.82C17.6333 134.66 17.2933 132.747 16.6 131.08C15.9067 129.413 14.8133 128.107 13.32 127.16C11.84 126.2 9.92 125.72 7.56 125.72H4.52ZM41.7666 123.6H44.0066V140.08C44.0066 142.253 43.5666 144.12 42.6866 145.68C41.8199 147.227 40.6466 148.413 39.1666 149.24C37.6866 150.067 36.0266 150.48 34.1866 150.48C32.3599 150.48 30.6999 150.067 29.2066 149.24C27.7132 148.413 26.5266 147.227 25.6466 145.68C24.7666 144.12 24.3266 142.253 24.3266 140.08V123.6H26.5666V139.96C26.5666 141.653 26.9066 143.127 27.5866 144.38C28.2666 145.633 29.1799 146.607 30.3266 147.3C31.4866 147.993 32.7732 148.34 34.1866 148.34C35.5999 148.34 36.8732 147.993 38.0066 147.3C39.1532 146.607 40.0666 145.633 40.7466 144.38C41.4266 143.127 41.7666 141.653 41.7666 139.96V123.6ZM62.8959 142.8C63.8293 142.8 64.7293 142.653 65.5959 142.36C66.4759 142.067 67.1559 141.773 67.6359 141.48L70.9359 148.04C70.2959 148.573 69.2093 149.113 67.6759 149.66C66.1426 150.207 64.3359 150.48 62.2559 150.48C60.3093 150.48 58.4693 150.147 56.7359 149.48C55.0026 148.8 53.4626 147.847 52.1159 146.62C50.7826 145.393 49.7359 143.953 48.9759 142.3C48.2159 140.633 47.8359 138.813 47.8359 136.84C47.8359 134.867 48.2159 133.047 48.9759 131.38C49.7359 129.7 50.7826 128.247 52.1159 127.02C53.4493 125.78 54.9826 124.82 56.7159 124.14C58.4626 123.46 60.3093 123.12 62.2559 123.12C64.3359 123.12 66.1426 123.393 67.6759 123.94C69.2093 124.487 70.2959 125.027 70.9359 125.56L67.6359 132.12C67.1559 131.827 66.4759 131.533 65.5959 131.24C64.7293 130.947 63.8293 130.8 62.8959 130.8C61.6293 130.8 60.5693 130.98 59.7159 131.34C58.8626 131.7 58.1759 132.18 57.6559 132.78C57.1493 133.367 56.7826 134.013 56.5559 134.72C56.3426 135.413 56.2359 136.1 56.2359 136.78C56.2359 137.473 56.3426 138.173 56.5559 138.88C56.7826 139.587 57.1493 140.24 57.6559 140.84C58.1759 141.427 58.8626 141.9 59.7159 142.26C60.5693 142.62 61.6293 142.8 62.8959 142.8ZM81.8088 136.78C81.8088 137.967 82.0488 139.053 82.5288 140.04C83.0088 141.013 83.6821 141.793 84.5488 142.38C85.4154 142.953 86.4288 143.24 87.5888 143.24C88.7621 143.24 89.7821 142.953 90.6488 142.38C91.5154 141.793 92.1888 141.013 92.6688 140.04C93.1488 139.053 93.3888 137.967 93.3888 136.78C93.3888 135.593 93.1488 134.513 92.6688 133.54C92.1888 132.567 91.5154 131.787 90.6488 131.2C89.7821 130.613 88.7621 130.32 87.5888 130.32C86.4288 130.32 85.4154 130.613 84.5488 131.2C83.6821 131.787 83.0088 132.567 82.5288 133.54C82.0488 134.513 81.8088 135.593 81.8088 136.78ZM73.7288 136.78C73.7288 134.86 74.0754 133.073 74.7688 131.42C75.4754 129.753 76.4554 128.3 77.7088 127.06C78.9621 125.82 80.4288 124.853 82.1088 124.16C83.8021 123.467 85.6288 123.12 87.5888 123.12C89.5888 123.12 91.4288 123.467 93.1088 124.16C94.8021 124.853 96.2688 125.82 97.5088 127.06C98.7621 128.3 99.7288 129.753 100.409 131.42C101.102 133.073 101.449 134.86 101.449 136.78C101.449 138.713 101.115 140.513 100.449 142.18C99.7821 143.833 98.8288 145.287 97.5888 146.54C96.3621 147.78 94.9021 148.747 93.2088 149.44C91.5154 150.133 89.6421 150.48 87.5888 150.48C85.4821 150.48 83.5754 150.133 81.8688 149.44C80.1754 148.747 78.7221 147.78 77.5088 146.54C76.2954 145.287 75.3621 143.833 74.7088 142.18C74.0554 140.513 73.7288 138.713 73.7288 136.78ZM104.643 123.6H112.383V150H104.643V123.6ZM123.479 130.64L124.059 130.74V150H116.319V123.6H126.779L135.399 142.8L134.819 142.92V123.6H142.559V150H132.039L123.479 130.64Z" fill="#352F2F"/>
<path d="M151.168 126.736L151.256 126.752V136H149.888V125.44H151.816L157.296 134.68L157.208 134.696V125.44H158.576V136H156.632L151.168 126.736ZM160.732 125.44H166.972V126.68H162.084V130.104H166.876V131.312H162.084V134.76H166.972V136H160.732V125.44ZM175.73 125.44H177.098V132C177.098 132.869 176.925 133.619 176.578 134.248C176.231 134.872 175.754 135.352 175.146 135.688C174.543 136.024 173.853 136.192 173.074 136.192C172.295 136.192 171.599 136.024 170.986 135.688C170.378 135.352 169.901 134.872 169.554 134.248C169.207 133.619 169.034 132.869 169.034 132V125.44H170.394V131.928C170.394 132.541 170.511 133.072 170.746 133.52C170.981 133.968 171.301 134.315 171.706 134.56C172.111 134.8 172.567 134.92 173.074 134.92C173.581 134.92 174.034 134.8 174.434 134.56C174.834 134.315 175.149 133.968 175.378 133.52C175.613 133.072 175.73 132.541 175.73 131.928V125.44ZM179.068 125.44H184.572V126.68H180.428V130.088H184.292V131.32H180.428V136H179.068V125.44Z" fill="#352F2F"/>
<path d="M151.776 144.712C151.776 145.496 151.939 146.203 152.264 146.832C152.595 147.461 153.048 147.963 153.624 148.336C154.2 148.704 154.861 148.888 155.608 148.888C156.36 148.888 157.021 148.704 157.592 148.336C158.168 147.963 158.619 147.461 158.944 146.832C159.269 146.203 159.432 145.496 159.432 144.712C159.432 143.928 159.269 143.224 158.944 142.6C158.619 141.971 158.168 141.472 157.592 141.104C157.021 140.736 156.36 140.552 155.608 140.552C154.861 140.552 154.2 140.736 153.624 141.104C153.048 141.472 152.595 141.971 152.264 142.6C151.939 143.224 151.776 143.928 151.776 144.712ZM150.36 144.712C150.36 143.944 150.491 143.229 150.752 142.568C151.019 141.901 151.389 141.32 151.864 140.824C152.339 140.328 152.893 139.941 153.528 139.664C154.168 139.387 154.861 139.248 155.608 139.248C156.36 139.248 157.053 139.387 157.688 139.664C158.328 139.941 158.883 140.328 159.352 140.824C159.827 141.32 160.195 141.901 160.456 142.568C160.717 143.229 160.848 143.944 160.848 144.712C160.848 145.485 160.717 146.205 160.456 146.872C160.2 147.533 159.835 148.115 159.36 148.616C158.891 149.112 158.339 149.499 157.704 149.776C157.069 150.053 156.371 150.192 155.608 150.192C154.845 150.192 154.141 150.053 153.496 149.776C152.856 149.499 152.301 149.112 151.832 148.616C151.363 148.115 151 147.533 150.744 146.872C150.488 146.205 150.36 145.485 150.36 144.712ZM167.571 148.84C168.227 148.84 168.795 148.749 169.275 148.568C169.76 148.387 170.104 148.211 170.307 148.04L170.907 149.216C170.667 149.429 170.248 149.645 169.651 149.864C169.059 150.083 168.347 150.192 167.515 150.192C166.736 150.192 166.013 150.053 165.347 149.776C164.68 149.499 164.096 149.112 163.595 148.616C163.099 148.12 162.709 147.541 162.427 146.88C162.149 146.219 162.011 145.504 162.011 144.736C162.011 143.968 162.149 143.251 162.427 142.584C162.704 141.917 163.091 141.336 163.587 140.84C164.088 140.339 164.672 139.949 165.339 139.672C166.011 139.389 166.736 139.248 167.515 139.248C168.347 139.248 169.059 139.357 169.651 139.576C170.248 139.795 170.667 140.011 170.907 140.224L170.307 141.4C170.104 141.224 169.76 141.048 169.275 140.872C168.795 140.691 168.227 140.6 167.571 140.6C166.973 140.6 166.427 140.701 165.931 140.904C165.435 141.107 165.003 141.395 164.635 141.768C164.272 142.136 163.989 142.571 163.787 143.072C163.589 143.573 163.491 144.12 163.491 144.712C163.491 145.309 163.589 145.861 163.787 146.368C163.989 146.869 164.272 147.307 164.635 147.68C165.003 148.048 165.435 148.333 165.931 148.536C166.427 148.739 166.973 148.84 167.571 148.84ZM177.68 148.84C178.336 148.84 178.904 148.749 179.384 148.568C179.869 148.387 180.213 148.211 180.416 148.04L181.016 149.216C180.776 149.429 180.357 149.645 179.76 149.864C179.168 150.083 178.456 150.192 177.624 150.192C176.845 150.192 176.123 150.053 175.456 149.776C174.789 149.499 174.205 149.112 173.704 148.616C173.208 148.12 172.819 147.541 172.536 146.88C172.259 146.219 172.12 145.504 172.12 144.736C172.12 143.968 172.259 143.251 172.536 142.584C172.813 141.917 173.2 141.336 173.696 140.84C174.197 140.339 174.781 139.949 175.448 139.672C176.12 139.389 176.845 139.248 177.624 139.248C178.456 139.248 179.168 139.357 179.76 139.576C180.357 139.795 180.776 140.011 181.016 140.224L180.416 141.4C180.213 141.224 179.869 141.048 179.384 140.872C178.904 140.691 178.336 140.6 177.68 140.6C177.083 140.6 176.536 140.701 176.04 140.904C175.544 141.107 175.112 141.395 174.744 141.768C174.381 142.136 174.099 142.571 173.896 143.072C173.699 143.573 173.6 144.12 173.6 144.712C173.6 145.309 173.699 145.861 173.896 146.368C174.099 146.869 174.381 147.307 174.744 147.68C175.112 148.048 175.544 148.333 176.04 148.536C176.536 148.739 177.083 148.84 177.68 148.84ZM185.861 139.44H187.285L191.189 150H189.725L188.813 147.456H184.333L183.405 150H181.941L185.861 139.44ZM184.773 146.224H188.381L186.589 141.12H186.565L184.773 146.224ZM195.606 139.248C196.214 139.248 196.736 139.317 197.174 139.456C197.616 139.595 197.963 139.741 198.214 139.896C198.47 140.051 198.622 140.152 198.67 140.2L197.966 141.328C197.886 141.259 197.744 141.16 197.542 141.032C197.339 140.899 197.086 140.781 196.782 140.68C196.478 140.573 196.131 140.52 195.742 140.52C195.139 140.52 194.662 140.643 194.31 140.888C193.963 141.128 193.789 141.469 193.789 141.912C193.789 142.211 193.88 142.475 194.062 142.704C194.248 142.928 194.51 143.133 194.846 143.32C195.182 143.507 195.574 143.699 196.022 143.896C196.39 144.051 196.75 144.227 197.102 144.424C197.459 144.621 197.782 144.853 198.07 145.12C198.363 145.387 198.595 145.696 198.766 146.048C198.942 146.4 199.03 146.805 199.03 147.264C199.03 147.717 198.936 148.125 198.75 148.488C198.568 148.851 198.31 149.16 197.974 149.416C197.643 149.667 197.256 149.859 196.814 149.992C196.371 150.125 195.894 150.192 195.382 150.192C194.736 150.192 194.152 150.112 193.63 149.952C193.112 149.792 192.694 149.624 192.374 149.448C192.059 149.272 191.878 149.163 191.83 149.12L192.574 147.944C192.638 147.997 192.755 148.077 192.926 148.184C193.096 148.285 193.307 148.392 193.558 148.504C193.808 148.616 194.091 148.712 194.406 148.792C194.72 148.867 195.056 148.904 195.414 148.904C196.128 148.904 196.67 148.744 197.038 148.424C197.406 148.104 197.59 147.693 197.59 147.192C197.59 146.808 197.472 146.477 197.238 146.2C197.003 145.923 196.691 145.675 196.302 145.456C195.912 145.237 195.483 145.027 195.014 144.824C194.534 144.605 194.094 144.365 193.694 144.104C193.294 143.843 192.971 143.531 192.726 143.168C192.486 142.8 192.366 142.357 192.366 141.84C192.366 141.328 192.51 140.877 192.798 140.488C193.091 140.099 193.483 139.795 193.974 139.576C194.47 139.357 195.014 139.248 195.606 139.248ZM200.891 139.44H202.267V150H200.891V139.44ZM205.401 144.712C205.401 145.496 205.564 146.203 205.889 146.832C206.22 147.461 206.673 147.963 207.249 148.336C207.825 148.704 208.486 148.888 209.233 148.888C209.985 148.888 210.646 148.704 211.217 148.336C211.793 147.963 212.244 147.461 212.569 146.832C212.894 146.203 213.057 145.496 213.057 144.712C213.057 143.928 212.894 143.224 212.569 142.6C212.244 141.971 211.793 141.472 211.217 141.104C210.646 140.736 209.985 140.552 209.233 140.552C208.486 140.552 207.825 140.736 207.249 141.104C206.673 141.472 206.22 141.971 205.889 142.6C205.564 143.224 205.401 143.928 205.401 144.712ZM203.985 144.712C203.985 143.944 204.116 143.229 204.377 142.568C204.644 141.901 205.014 141.32 205.489 140.824C205.964 140.328 206.518 139.941 207.153 139.664C207.793 139.387 208.486 139.248 209.233 139.248C209.985 139.248 210.678 139.387 211.313 139.664C211.953 139.941 212.508 140.328 212.977 140.824C213.452 141.32 213.82 141.901 214.081 142.568C214.342 143.229 214.473 143.944 214.473 144.712C214.473 145.485 214.342 146.205 214.081 146.872C213.825 147.533 213.46 148.115 212.985 148.616C212.516 149.112 211.964 149.499 211.329 149.776C210.694 150.053 209.996 150.192 209.233 150.192C208.47 150.192 207.766 150.053 207.121 149.776C206.481 149.499 205.926 149.112 205.457 148.616C204.988 148.115 204.625 147.533 204.369 146.872C204.113 146.205 203.985 145.485 203.985 144.712ZM217.356 140.736L217.444 140.752V150H216.076V139.44H218.004L223.484 148.68L223.396 148.696V139.44H224.764V150H222.82L217.356 140.736Z" fill="#352F2F"/>
</svg>
