<svg width="146" height="85" viewBox="0 0 146 85" fill="none" xmlns="http://www.w3.org/2000/svg">
<circle cx="72.5" cy="41.5" r="38.5" fill="#352F2F"/>
<path d="M72.8911 12.4614C88.5773 12.4614 101.339 25.3844 101.339 41.2687C101.339 57.1533 88.5773 70.0763 72.8911 70.0763C57.2049 70.0763 44.4426 57.1533 44.4426 41.269C44.4426 25.3844 57.2049 12.4614 72.8911 12.4614ZM72.8911 71.5377C89.3729 71.5377 102.782 57.9592 102.782 41.269C102.782 24.5788 89.3729 11 72.8911 11C56.4089 11 43 24.5788 43 41.269C43 57.9592 56.4089 71.5377 72.8911 71.5377Z" fill="#EFD8D1"/>
<path d="M51.9438 26.7412C51.7462 27.5887 51.6307 28.4682 51.6307 29.3768C51.6307 29.557 51.6492 29.7324 51.6573 29.9106C49.8526 33.3428 48.8256 37.2554 48.8256 41.4077C48.8256 47.9641 51.3469 54.1283 55.9252 58.7644C60.5034 63.4005 66.5904 65.9537 73.0651 65.9537C86.4311 65.9537 97.3051 54.9422 97.3051 41.4074C97.3051 27.8727 86.4311 16.8612 73.0651 16.8612C70.3365 16.8612 67.7149 17.3269 65.2653 18.1725C64.5139 18.0132 63.7359 17.9271 62.9377 17.9271C62.6489 17.9271 62.3655 17.9493 62.0821 17.9709C65.4129 16.3638 69.1364 15.4614 73.0651 15.4614C87.1934 15.4614 98.688 27.1007 98.688 41.4074C98.688 55.7142 87.1934 67.3535 73.0651 67.3535C66.2211 67.3537 59.7869 64.6548 54.9473 59.7543C50.1082 54.8539 47.4427 48.3381 47.4427 41.4077C47.4427 35.968 49.1076 30.9165 51.9438 26.7412ZM57.9228 56.7413C61.9673 60.8368 67.345 63.0924 73.0651 63.0924C84.8731 63.0924 94.4796 53.3644 94.4796 41.4072C94.4796 29.4503 84.8731 19.7225 73.0651 19.7225C71.8367 19.7225 70.6341 19.8336 69.4617 20.0357C68.8974 19.6308 68.2947 19.2799 67.6604 18.9838C69.3941 18.5551 71.2029 18.3227 73.0651 18.3226C85.6355 18.3226 95.8625 28.6783 95.8625 41.4072C95.8625 54.1363 85.6355 64.4923 73.0651 64.4923C66.9757 64.4925 61.2508 62.0912 56.945 57.731C52.6391 53.371 50.2678 47.5738 50.2678 41.4077C50.2678 38.2326 50.9045 35.2055 52.0548 32.4496C52.2432 33.135 52.4933 33.7925 52.7981 34.4197C52.0581 36.614 51.6506 38.9629 51.6506 41.4077C51.6506 47.2 53.8778 52.6454 57.9228 56.7413ZM56.1596 38.5257C58.0496 39.9639 60.3913 40.8266 62.9376 40.8266C69.1822 40.8266 74.2445 35.7004 74.2446 29.3769C74.2446 27.4517 73.7702 25.6406 72.9413 24.0483C72.9828 24.048 73.0236 24.0451 73.0651 24.0451C77.6449 24.0449 81.9507 25.8507 85.189 29.13C88.4278 32.4094 90.2114 36.7694 90.2114 41.407C90.2114 50.9804 82.5196 58.7693 73.0651 58.7695C68.4854 58.7697 64.1795 56.9639 60.9412 53.6847C57.7025 50.4053 55.9189 46.0452 55.9189 41.4077C55.9189 40.4256 56.004 39.4637 56.1596 38.5257ZM53.7969 36.097C54.1337 36.5658 54.4974 37.0133 54.8989 37.4245C54.6245 38.7093 54.4762 40.041 54.4762 41.4077C54.4762 51.787 62.815 60.2311 73.0651 60.2311C83.3152 60.2309 91.654 51.7865 91.654 41.4072C91.654 36.3793 89.7205 31.6521 86.2098 28.0968C82.6985 24.5417 78.0306 22.5837 73.0651 22.5837C72.7231 22.5837 72.3837 22.5946 72.0462 22.6132C71.7098 22.1495 71.3489 21.7053 70.9488 21.2985C71.6446 21.2239 72.3502 21.1839 73.0651 21.1839C78.3999 21.1836 83.415 23.2873 87.1871 27.1071C90.9592 30.9265 93.0369 36.0053 93.0369 41.4072C93.0369 52.5585 84.0776 61.6308 73.0651 61.631C62.0527 61.631 53.0933 52.559 53.0933 41.4077C53.0933 39.5699 53.3412 37.7905 53.7969 36.097ZM73.0656 68.8152C87.9895 68.8152 100.131 56.52 100.131 41.4074C100.131 26.2951 87.9895 14 73.0656 14C58.1412 14 46 26.2951 46 41.4077C46 56.52 58.1412 68.8152 73.0656 68.8152Z" fill="#EFD8D1"/>
<path d="M72.2142 5.12524C93.048 5.12524 109.997 21.8231 109.997 42.3474C109.997 62.8717 93.048 79.5695 72.2142 79.5695C51.3804 79.5695 34.4309 62.8717 34.4309 42.3474C34.431 21.8231 51.3805 5.12524 72.2142 5.12524ZM72.5953 84.6948C102.172 84.6948 129.694 68.975 144.421 43.6703L145.191 42.3475L144.421 41.0247C129.694 15.7197 102.172 7.62939e-06 72.5958 7.62939e-06C43.0194 7.62939e-06 15.4972 15.7197 0.769634 41.0245L0 42.3472L0.769634 43.67C15.4972 68.975 43.0194 84.6948 72.5953 84.6948Z" fill="#352F2F"/>
<path d="M73.0945 8.61994C91.8743 8.61994 107.153 23.6715 107.153 42.1723C107.153 60.6731 91.8742 75.7246 73.0945 75.7246C54.3148 75.7246 39.0363 60.6731 39.0363 42.1723C39.0364 23.6715 54.3148 8.61994 73.0945 8.61994ZM73.438 80.3446C100.098 80.3446 124.907 66.1747 138.183 43.3647L138.876 42.1724L138.183 40.98C124.907 18.1699 100.099 4.00001 73.4385 4.00001C46.7781 4.00001 21.9693 18.1699 8.69375 40.9798L8 42.1721L8.69375 43.3645C21.9693 66.1747 46.7781 80.3446 73.438 80.3446Z" fill="#EFD8D1"/>
</svg>
