<svg viewBox="0 0 300 174" fill="none" xmlns="http://www.w3.org/2000/svg">
<path d="M149.668 23.8777C185.529 23.8777 214.705 52.8404 214.705 88.4397C214.705 124.04 185.529 153.002 149.668 153.002C113.807 153.002 84.6305 124.04 84.6305 88.4403C84.6305 52.8404 113.807 23.8777 149.668 23.8777ZM149.668 156.278C187.348 156.278 218.003 125.846 218.003 88.4403C218.003 51.0348 187.348 20.6025 149.668 20.6025C111.987 20.6025 81.3324 51.0348 81.3324 88.4403C81.3324 125.846 111.987 156.278 149.668 156.278Z" fill="currentColor"/>
<path d="M101.381 55.5704C100.929 57.4698 100.665 59.4409 100.665 61.4773C100.665 61.8811 100.707 62.2742 100.726 62.6735C96.5999 70.3657 94.2519 79.1344 94.2519 88.4405C94.2519 103.135 100.016 116.949 110.483 127.34C120.949 137.73 134.865 143.452 149.667 143.452C180.224 143.452 205.084 118.774 205.084 88.4399C205.084 58.1061 180.224 33.4277 149.667 33.4277C143.429 33.4277 137.436 34.4714 131.836 36.3665C130.118 36.0094 128.339 35.8166 126.514 35.8166C125.854 35.8166 125.206 35.8663 124.558 35.9146C132.173 32.3129 140.686 30.2903 149.667 30.2903C181.967 30.2903 208.245 56.3761 208.245 88.4399C208.245 120.504 181.967 146.589 149.667 146.589C134.021 146.59 119.311 140.541 108.247 129.558C97.1841 118.576 91.0904 103.973 91.0904 88.4405C91.0904 76.2493 94.8966 64.9279 101.381 55.5704ZM115.05 122.806C124.296 131.984 136.59 137.04 149.667 137.04C176.662 137.04 198.624 115.237 198.624 88.4393C198.624 61.6418 176.662 39.8403 149.667 39.8403C146.859 39.8403 144.11 40.0892 141.429 40.5423C140.139 39.6347 138.761 38.8482 137.311 38.1846C141.275 37.224 145.41 36.703 149.667 36.7029C178.405 36.7029 201.786 59.9117 201.786 88.4393C201.786 116.967 178.405 140.177 149.667 140.177C135.746 140.177 122.658 134.796 112.814 125.024C102.97 115.252 97.549 102.26 97.549 88.4405C97.549 81.3246 99.0046 74.5402 101.634 68.3639C102.065 69.8999 102.637 71.3735 103.334 72.7791C101.642 77.697 100.71 82.9612 100.71 88.4405C100.71 101.422 105.802 113.626 115.05 122.806ZM111.019 81.9813C115.34 85.2048 120.693 87.1382 126.514 87.1382C140.79 87.1382 152.364 75.6495 152.364 61.4775C152.364 57.1628 151.279 53.1038 149.384 49.5351C149.479 49.5344 149.572 49.5279 149.667 49.5279C160.137 49.5275 169.981 53.5746 177.384 60.924C184.789 68.2738 188.866 78.0452 188.866 88.4388C188.866 109.895 171.282 127.351 149.667 127.351C139.197 127.352 129.353 123.304 121.95 115.955C114.546 108.606 110.468 98.834 110.468 88.4405C110.468 86.2394 110.663 84.0836 111.019 81.9813ZM105.617 76.5382C106.387 77.589 107.219 78.5918 108.137 79.5136C107.509 82.3928 107.17 85.3775 107.17 88.4405C107.17 111.702 126.234 130.627 149.667 130.627C173.101 130.626 192.165 111.701 192.165 88.4393C192.165 77.1709 187.744 66.5766 179.718 58.6085C171.691 50.6409 161.019 46.2528 149.667 46.2528C148.886 46.2528 148.11 46.2772 147.338 46.3188C146.569 45.2796 145.744 44.2841 144.829 43.3723C146.42 43.2052 148.033 43.1154 149.667 43.1154C161.864 43.1149 173.329 47.8297 181.952 56.3903C190.576 64.9504 195.326 76.3327 195.326 88.4393C195.326 113.431 174.844 133.764 149.667 133.764C124.491 133.764 104.009 113.432 104.009 88.4405C104.009 84.3216 104.575 80.3337 105.617 76.5382ZM149.668 149.865C183.787 149.865 211.544 122.31 211.544 88.4399C211.544 54.5705 183.787 27.0151 149.668 27.0151C115.549 27.0151 87.7922 54.5705 87.7922 88.4405C87.7922 122.31 115.549 149.865 149.668 149.865Z" fill="currentColor"/>
<path d="M149.212 10.5295C192.26 10.5295 227.282 44.8341 227.282 87C227.282 129.166 192.26 163.471 149.212 163.471C106.165 163.471 71.1427 129.166 71.1427 87C71.1428 44.8341 106.165 10.5295 149.212 10.5295ZM150 174C211.111 174 267.979 141.705 298.41 89.7178L300 87.0002L298.41 84.2827C267.979 32.2951 211.113 1.78254e-07 150.001 1.78254e-07C88.8886 1.78254e-07 32.0209 32.2951 1.59025 84.2821L0 86.9997L1.59025 89.7173C32.0209 141.705 88.8886 174 150 174Z" fill="currentColor"/>
</svg>
