<svg width="267" height="138" viewBox="0 0 267 138" fill="none" xmlns="http://www.w3.org/2000/svg">
<path d="M2.38 80.6H4.62V104.9H15.38V107H2.38V80.6ZM27.9534 80.6H30.4134L39.8734 107H37.4934L35.0334 100.16H23.3534L20.8734 107H18.4534L27.9534 80.6ZM24.0334 98.06H34.3734L29.2134 83.42H29.1534L24.0334 98.06ZM42.1459 80.6H49.9059V100.28H58.9259V107H42.1459V80.6ZM76.0706 80.6H83.8106V96.7C83.8106 98.8733 83.3906 100.767 82.5506 102.38C81.7106 103.993 80.4706 105.247 78.8306 106.14C77.204 107.033 75.1973 107.48 72.8106 107.48C70.424 107.48 68.404 107.033 66.7506 106.14C65.1106 105.247 63.8706 103.993 63.0306 102.38C62.1906 100.767 61.7706 98.8733 61.7706 96.7V80.6H69.5106V96.28C69.5106 97.2533 69.6306 98.0533 69.8706 98.68C70.1106 99.2933 70.4706 99.7467 70.9506 100.04C71.444 100.333 72.064 100.48 72.8106 100.48C73.544 100.48 74.1506 100.333 74.6306 100.04C75.1106 99.7467 75.4706 99.2933 75.7106 98.68C75.9506 98.0533 76.0706 97.2533 76.0706 96.28V80.6ZM94.7291 87.64L95.3091 87.74V107H87.5691V80.6H98.0291L106.649 99.8L106.069 99.92V80.6H113.809V107H103.289L94.7291 87.64ZM117.725 80.6H135.445V87.32H125.465V90.52H135.445V97.02H125.465V100.28H135.445V107H117.725V80.6ZM143.906 87.32H138.206V80.6H157.346V87.32H151.646V107H143.906V87.32ZM165.156 87.32H159.456V80.6H178.596V87.32H172.896V107H165.156V87.32ZM181.436 80.6H199.156V87.32H189.176V90.52H199.156V97.02H189.176V100.28H199.156V107H181.436V80.6ZM202.877 80.6H214.717C216.317 80.6 217.73 80.94 218.957 81.62C220.184 82.2867 221.144 83.2467 221.837 84.5C222.53 85.74 222.877 87.2133 222.877 88.92C222.877 90.6133 222.597 91.9867 222.037 93.04C221.49 94.08 220.83 94.86 220.057 95.38C219.284 95.9 218.57 96.2333 217.917 96.38L224.237 107H215.557L210.117 96.98H210.637V107H202.877V80.6ZM210.637 91.74H211.917C212.624 91.74 213.297 91.5733 213.937 91.24C214.59 90.9067 214.917 90.22 214.917 89.18C214.917 88.14 214.604 87.4533 213.977 87.12C213.35 86.7867 212.684 86.62 211.977 86.62H210.637V91.74ZM227.924 80.6H235.664V107H227.924V80.6ZM239.6 80.6H257.32V87.32H247.34V90.52H257.32V97.02H247.34V100.28H257.32V107H239.6V80.6ZM2.3 110.6H7.74C10.5533 110.6 12.86 111.167 14.66 112.3C16.46 113.42 17.7867 114.973 18.64 116.96C19.5067 118.947 19.94 121.22 19.94 123.78C19.94 126.353 19.5133 128.633 18.66 130.62C17.8067 132.607 16.48 134.167 14.68 135.3C12.88 136.433 10.5667 137 7.74 137H2.3V110.6ZM4.52 112.72V134.88H7.56C9.90667 134.88 11.8133 134.407 13.28 133.46C14.76 132.513 15.8467 131.213 16.54 129.56C17.2467 127.893 17.6067 125.98 17.62 123.82C17.6333 121.66 17.2933 119.747 16.6 118.08C15.9067 116.413 14.8133 115.107 13.32 114.16C11.84 113.2 9.92 112.72 7.56 112.72H4.52ZM41.7666 110.6H44.0066V127.08C44.0066 129.253 43.5666 131.12 42.6866 132.68C41.8199 134.227 40.6466 135.413 39.1666 136.24C37.6866 137.067 36.0266 137.48 34.1866 137.48C32.3599 137.48 30.6999 137.067 29.2066 136.24C27.7132 135.413 26.5266 134.227 25.6466 132.68C24.7666 131.12 24.3266 129.253 24.3266 127.08V110.6H26.5666V126.96C26.5666 128.653 26.9066 130.127 27.5866 131.38C28.2666 132.633 29.1799 133.607 30.3266 134.3C31.4866 134.993 32.7732 135.34 34.1866 135.34C35.5999 135.34 36.8732 134.993 38.0066 134.3C39.1532 133.607 40.0666 132.633 40.7466 131.38C41.4266 130.127 41.7666 128.653 41.7666 126.96V110.6ZM62.8959 129.8C63.8293 129.8 64.7293 129.653 65.5959 129.36C66.4759 129.067 67.1559 128.773 67.6359 128.48L70.9359 135.04C70.2959 135.573 69.2093 136.113 67.6759 136.66C66.1426 137.207 64.3359 137.48 62.2559 137.48C60.3093 137.48 58.4693 137.147 56.7359 136.48C55.0026 135.8 53.4626 134.847 52.1159 133.62C50.7826 132.393 49.7359 130.953 48.9759 129.3C48.2159 127.633 47.8359 125.813 47.8359 123.84C47.8359 121.867 48.2159 120.047 48.9759 118.38C49.7359 116.7 50.7826 115.247 52.1159 114.02C53.4493 112.78 54.9826 111.82 56.7159 111.14C58.4626 110.46 60.3093 110.12 62.2559 110.12C64.3359 110.12 66.1426 110.393 67.6759 110.94C69.2093 111.487 70.2959 112.027 70.9359 112.56L67.6359 119.12C67.1559 118.827 66.4759 118.533 65.5959 118.24C64.7293 117.947 63.8293 117.8 62.8959 117.8C61.6293 117.8 60.5693 117.98 59.7159 118.34C58.8626 118.7 58.1759 119.18 57.6559 119.78C57.1493 120.367 56.7826 121.013 56.5559 121.72C56.3426 122.413 56.2359 123.1 56.2359 123.78C56.2359 124.473 56.3426 125.173 56.5559 125.88C56.7826 126.587 57.1493 127.24 57.6559 127.84C58.1759 128.427 58.8626 128.9 59.7159 129.26C60.5693 129.62 61.6293 129.8 62.8959 129.8ZM81.8088 123.78C81.8088 124.967 82.0488 126.053 82.5288 127.04C83.0088 128.013 83.6821 128.793 84.5488 129.38C85.4154 129.953 86.4288 130.24 87.5888 130.24C88.7621 130.24 89.7821 129.953 90.6488 129.38C91.5154 128.793 92.1888 128.013 92.6688 127.04C93.1488 126.053 93.3888 124.967 93.3888 123.78C93.3888 122.593 93.1488 121.513 92.6688 120.54C92.1888 119.567 91.5154 118.787 90.6488 118.2C89.7821 117.613 88.7621 117.32 87.5888 117.32C86.4288 117.32 85.4154 117.613 84.5488 118.2C83.6821 118.787 83.0088 119.567 82.5288 120.54C82.0488 121.513 81.8088 122.593 81.8088 123.78ZM73.7288 123.78C73.7288 121.86 74.0754 120.073 74.7688 118.42C75.4754 116.753 76.4554 115.3 77.7088 114.06C78.9621 112.82 80.4288 111.853 82.1088 111.16C83.8021 110.467 85.6288 110.12 87.5888 110.12C89.5888 110.12 91.4288 110.467 93.1088 111.16C94.8021 111.853 96.2688 112.82 97.5088 114.06C98.7621 115.3 99.7288 116.753 100.409 118.42C101.102 120.073 101.449 121.86 101.449 123.78C101.449 125.713 101.115 127.513 100.449 129.18C99.7821 130.833 98.8288 132.287 97.5888 133.54C96.3621 134.78 94.9021 135.747 93.2088 136.44C91.5154 137.133 89.6421 137.48 87.5888 137.48C85.4821 137.48 83.5754 137.133 81.8688 136.44C80.1754 135.747 78.7221 134.78 77.5088 133.54C76.2954 132.287 75.3621 130.833 74.7088 129.18C74.0554 127.513 73.7288 125.713 73.7288 123.78ZM104.643 110.6H112.383V137H104.643V110.6ZM123.479 117.64L124.059 117.74V137H116.319V110.6H126.779L135.399 129.8L134.819 129.92V110.6H142.559V137H132.039L123.479 117.64Z" fill="black"/>
<path d="M63.6385 10.4469C78.9799 10.4469 91.4612 22.9084 91.4612 38.2254C91.4612 53.5427 78.9799 66.0041 63.6385 66.0041C48.297 66.0041 35.8152 53.5427 35.8152 38.2256C35.8152 22.9084 48.297 10.4469 63.6385 10.4469ZM63.6385 67.4133C79.758 67.4133 92.8722 54.3197 92.8722 38.2256C92.8722 22.1315 79.758 9.0377 63.6385 9.0377C47.5185 9.0377 34.4043 22.1315 34.4043 38.2256C34.4043 54.3197 47.5185 67.4133 63.6385 67.4133Z" fill="black"/>
<path d="M42.981 24.0831C42.7878 24.9003 42.6748 25.7484 42.6748 26.6246C42.6748 26.7983 42.6929 26.9674 42.7008 27.1392C40.9358 30.4489 39.9313 34.2217 39.9313 38.2257C39.9313 44.548 42.3972 50.492 46.8748 54.9625C51.3525 59.4331 57.3057 61.8951 63.6381 61.8951C76.7103 61.8951 87.3454 51.2769 87.3454 38.2255C87.3454 25.1741 76.7103 14.5559 63.6381 14.5559C60.9695 14.5559 58.4055 15.005 56.0097 15.8204C55.2748 15.6667 54.5139 15.5838 53.7333 15.5838C53.4508 15.5838 53.1736 15.6052 52.8965 15.626C56.154 14.0763 59.7958 13.2061 63.6381 13.2061C77.4559 13.2061 88.6979 24.4297 88.6979 38.2255C88.6979 52.0213 77.4559 63.2449 63.6381 63.2449C56.9445 63.2451 50.6517 60.6426 45.9185 55.9171C41.1857 51.1917 38.5788 44.9087 38.5788 38.2257C38.5788 32.9803 40.2071 28.1092 42.981 24.0831ZM48.8286 53.0117C52.7842 56.961 58.0437 59.136 63.6381 59.136C75.1866 59.136 84.5819 49.7554 84.5819 38.2252C84.5819 26.6953 75.1866 17.315 63.6381 17.315C62.4367 17.315 61.2605 17.4221 60.1139 17.6171C59.5619 17.2266 58.9725 16.8882 58.3521 16.6026C60.0478 16.1893 61.8168 15.9652 63.6381 15.9651C75.9322 15.9651 85.9344 25.951 85.9344 38.2252C85.9344 50.4998 75.9322 60.4859 63.6381 60.4859C57.6825 60.4861 52.0834 58.1705 47.8722 53.966C43.661 49.7617 41.3418 44.1716 41.3418 38.2257C41.3418 35.164 41.9645 32.245 43.0895 29.5876C43.2738 30.2485 43.5184 30.8825 43.8165 31.4873C43.0928 33.6032 42.6943 35.8682 42.6943 38.2257C42.6943 43.8112 44.8725 49.0621 48.8286 53.0117ZM47.1041 35.4466C48.9526 36.8336 51.2428 37.6654 53.7331 37.6654C59.8406 37.6654 64.7916 32.7223 64.7916 26.6246C64.7916 24.7682 64.3277 23.0218 63.517 21.4863C63.5576 21.486 63.5975 21.4832 63.6381 21.4832C68.1172 21.483 72.3284 23.2244 75.4955 26.3865C78.6631 29.5488 80.4075 33.7531 80.4075 38.225C80.4075 47.4566 72.8848 54.9673 63.6381 54.9675C59.159 54.9677 54.9478 53.2263 51.7807 50.0643C48.6131 46.902 46.8687 42.6977 46.8687 38.2257C46.8687 37.2787 46.952 36.3512 47.1041 35.4466ZM44.7934 33.1047C45.1228 33.5568 45.4784 33.9882 45.8711 34.3848C45.6027 35.6237 45.4578 36.9079 45.4578 38.2257C45.4578 48.2344 53.6133 56.3769 63.6381 56.3769C73.6629 56.3767 81.8185 48.2339 81.8185 38.2252C81.8185 33.3769 79.9274 28.8186 76.4939 25.3902C73.0598 21.9621 68.4944 20.0741 63.6381 20.0741C63.3036 20.0741 62.9716 20.0846 62.6416 20.1025C62.3126 19.6554 61.9596 19.227 61.5683 18.8347C62.2488 18.7628 62.9389 18.7242 63.6381 18.7242C68.8556 18.724 73.7605 20.7525 77.4497 24.4358C81.1389 28.1189 83.1709 33.0162 83.1709 38.2252C83.1709 48.9783 74.4085 57.7266 63.6381 57.7268C52.8677 57.7268 44.1052 48.9788 44.1052 38.2257C44.1052 36.4536 44.3477 34.7377 44.7934 33.1047ZM63.6386 64.6544C78.2344 64.6544 90.1088 52.7984 90.1088 38.2255C90.1088 23.6528 78.2344 11.7969 63.6386 11.7969C49.0422 11.7969 37.1678 23.6528 37.1678 38.2257C37.1678 52.7984 49.0422 64.6544 63.6386 64.6544Z" fill="black"/>
<path d="M63.6639 4.53857C82.0309 4.53857 96.9735 19.325 96.9735 37.5C96.9735 55.675 82.0308 70.4614 63.6638 70.4614C45.2969 70.4614 30.3542 55.675 30.3542 37.5C30.3542 19.325 45.2969 4.53857 63.6639 4.53857ZM63.9998 75C90.0742 75 114.338 61.0797 127.322 38.6715L128 37.5001L127.322 36.3288C114.338 13.9203 90.0747 0 64.0003 0C37.9258 0 13.6623 13.9203 0.678507 36.3285L0 37.4999L0.678507 38.6712C13.6623 61.0797 37.9258 75 63.9998 75Z" fill="black"/>
</svg>
