<?xml version="1.0" encoding="UTF-8" standalone="no"?>
<!-- Created with Inkscape (http://www.inkscape.org/) -->

<svg
   version="1.1"
   id="svg2"
   xml:space="preserve"
   width="8314.9326"
   height="4844.103"
   viewBox="0 0 8314.9326 4844.103"
   sodipodi:docname="8d854a9f573700e8362f2429286d04ae.ai"
   xmlns:inkscape="http://www.inkscape.org/namespaces/inkscape"
   xmlns:sodipodi="http://sodipodi.sourceforge.net/DTD/sodipodi-0.dtd"
   xmlns="http://www.w3.org/2000/svg"
   xmlns:svg="http://www.w3.org/2000/svg"><defs
     id="defs6"><clipPath
       clipPathUnits="userSpaceOnUse"
       id="clipPath16"><path
         d="M 0,3968.504 H 6236.2 V 0 H 0 Z"
         id="path14" /></clipPath></defs><sodipodi:namedview
     id="namedview4"
     pagecolor="#ffffff"
     bordercolor="#666666"
     borderopacity="1.0"
     inkscape:pageshadow="2"
     inkscape:pageopacity="0.0"
     inkscape:pagecheckerboard="0" /><g
     id="g8"
     inkscape:groupmode="layer"
     inkscape:label="8d854a9f573700e8362f2429286d04ae"
     transform="matrix(1.3333333,0,0,-1.3333333,0,5067.7207)"><g
       id="g10"><g
         id="g12"
         clip-path="url(#clipPath16)"><g
           id="g18"
           transform="translate(4554.3062,3552.9126)"><path
             d="m 0,0 c 369.561,0 670.224,-300.664 670.224,-670.224 0,-369.567 -300.663,-670.23 -670.224,-670.23 -369.561,0 -670.236,300.663 -670.236,670.224 C -670.236,-300.664 -369.561,0 0,0 m 0,-1374.454 c 388.305,0 704.212,315.914 704.212,704.224 C 704.212,-281.92 388.305,34 0,34 c -388.316,0 -704.224,-315.92 -704.224,-704.23 0,-388.31 315.908,-704.224 704.224,-704.224"
             style="fill:#fffffc;fill-opacity:1;fill-rule:nonzero;stroke:none"
             id="path20" /></g><g
           id="g22"
           transform="translate(4056.6838,3223.9092)"><path
             d="m 0,0 c -4.654,-19.718 -7.375,-40.18 -7.375,-61.32 0,-4.192 0.436,-8.273 0.627,-12.418 -42.519,-79.853 -66.716,-170.882 -66.716,-267.489 0,-152.54 59.401,-295.954 167.264,-403.816 107.862,-107.863 251.27,-167.264 403.811,-167.264 314.897,0 571.086,256.189 571.086,571.086 0,314.897 -256.189,571.086 -571.086,571.086 -64.285,0 -126.049,-10.835 -183.76,-30.508 -17.704,3.707 -36.033,5.709 -54.838,5.709 -6.805,0 -13.481,-0.516 -20.158,-1.018 78.472,37.39 166.198,58.386 258.756,58.386 332.857,0 603.666,-270.798 603.666,-603.655 0,-332.857 -270.809,-603.654 -603.666,-603.654 -161.243,-0.006 -312.83,62.786 -426.849,176.8 -114.008,114.013 -176.806,265.606 -176.806,426.848 C -106.044,-214.669 -66.82,-97.141 0,0 m 140.864,-697.974 c 95.287,-95.286 221.984,-147.764 356.747,-147.764 278.192,0 504.517,226.33 504.517,504.523 0,278.187 -226.325,504.51 -504.517,504.51 -28.94,0 -57.273,-2.584 -84.895,-7.287 -13.296,9.421 -27.494,17.586 -42.439,24.475 40.846,9.972 83.461,15.381 127.334,15.382 296.153,0 537.097,-240.933 537.097,-537.08 0,-296.153 -240.944,-537.092 -537.097,-537.092 -143.464,-0.005 -278.341,55.863 -379.785,157.307 -101.444,101.439 -157.312,236.314 -157.312,379.773 0,73.871 15.001,144.3 42.101,208.417 4.439,-15.946 10.331,-31.243 17.512,-45.835 -17.433,-51.053 -27.033,-105.701 -27.033,-162.582 0,-134.762 52.471,-261.453 147.77,-356.747 m -41.541,423.8 c 44.529,-33.463 99.697,-53.534 159.687,-53.534 147.122,0 266.388,119.265 266.389,266.386 0,44.791 -11.177,86.928 -30.705,123.975 0.977,0.007 1.938,0.074 2.917,0.074 107.897,0.005 209.34,-42.009 285.633,-118.303 76.305,-76.299 118.326,-177.737 118.326,-285.634 0,-222.733 -181.214,-403.947 -403.959,-403.952 -107.897,-0.006 -209.341,42.009 -285.634,118.301 -76.304,76.299 -118.324,177.738 -118.324,285.634 0,22.85 2.005,45.229 5.67,67.053 m -55.663,56.505 c 7.934,-10.908 16.502,-21.318 25.962,-30.887 -6.466,-29.89 -9.958,-60.874 -9.958,-92.671 0,-241.483 196.458,-437.941 437.947,-437.941 241.489,0.005 437.948,196.47 437.948,437.953 0,116.978 -45.554,226.959 -128.265,309.676 -82.723,82.712 -192.699,128.266 -309.683,128.266 -8.057,0 -16.054,-0.254 -24.005,-0.686 -7.925,10.788 -16.429,21.123 -25.854,30.588 16.391,1.735 33.016,2.667 49.859,2.667 125.686,0.005 243.84,-48.939 332.709,-137.808 88.869,-88.863 137.819,-207.023 137.819,-332.703 0,-259.444 -211.079,-470.517 -470.528,-470.523 -259.449,0 -470.528,211.068 -470.528,470.511 0,42.758 5.84,84.157 16.577,123.558 m 453.962,-761.213 c 351.601,0 637.644,286.055 637.644,637.661 0,351.601 -286.043,637.655 -637.644,637.655 -351.612,0 -637.655,-286.054 -637.655,-637.661 0,-351.6 286.043,-637.655 637.655,-637.655"
             style="fill:#fffffc;fill-opacity:1;fill-rule:nonzero;stroke:none"
             id="path24" /></g><g
           id="g26"
           transform="translate(4554.3022,3689.6736)"><path
             d="m 0,0 c 444.975,0 806.988,-362.014 806.988,-806.989 0,-444.974 -362.014,-806.988 -806.989,-806.988 -444.975,0 -806.989,362.014 -806.989,806.988 C -806.989,-362.014 -444.975,0 0,0 m 8.138,-1725.094 c 631.702,0 1219.532,340.809 1534.088,889.425 l 16.438,28.678 -16.438,28.678 C 1227.67,-229.691 639.851,111.117 8.149,111.117 c -631.703,0 -1219.533,-340.808 -1534.089,-889.424 l -16.438,-28.678 16.438,-28.679 c 314.556,-548.621 902.386,-889.43 1534.078,-889.43"
             style="fill:#fffffc;fill-opacity:1;fill-rule:nonzero;stroke:none"
             id="path28" /></g><g
           id="g30"
           transform="translate(231.1302,1085.5265)"><path
             d="m 0,0 h -184.917 v 682.845 h -46.224 V -43.338 H 0 Z"
             style="fill:#fffffc;fill-opacity:1;fill-rule:nonzero;stroke:none"
             id="path32" /></g><g
           id="g34"
           transform="translate(575.9377,1674.9469)"><path
             d="m 0,0 141.567,-350.567 h -284.112 z m -159.88,-393.905 h 318.783 l 97.274,-238.854 h 47.201 L 0,117.507 -304.344,-632.759 h 47.189 z"
             style="fill:#fffffc;fill-opacity:1;fill-rule:nonzero;stroke:none"
             id="path36" /></g><g
           id="g38"
           transform="translate(1352.2062,1202.0681)"><path
             d="M 0,0 H -226.335 V 566.303 H -415.103 V -159.88 H 0 Z"
             style="fill:#fffffc;fill-opacity:1;fill-rule:nonzero;stroke:none"
             id="path40" /></g><g
           id="g42"
           transform="translate(1718.2002,1022.9215)"><path
             d="m 0,0 c 84.745,0 180.1,21.198 240.774,80.906 72.237,70.306 76.088,162.765 76.088,256.189 V 745.45 H 128.094 V 363.097 c 0,-94.389 -6.748,-197.435 -128.094,-197.435 -121.358,0 -128.094,103.046 -128.094,197.435 V 745.45 H -316.862 V 337.095 c 0,-93.424 3.85,-185.883 76.077,-256.189 C -180.1,21.198 -84.757,0 0,0"
             style="fill:#fffffc;fill-opacity:1;fill-rule:nonzero;stroke:none"
             id="path44" /></g><g
           id="g46"
           transform="translate(2822.907,1768.3713)"><path
             d="m 0,0 h -188.78 v -443.992 h -1.919 L -536.461,0 h -188.768 v -726.183 h 188.768 v 444.957 h 1.931 l 345.75,-444.957 H 0 Z"
             style="fill:#fffffc;fill-opacity:1;fill-rule:nonzero;stroke:none"
             id="path48" /></g><g
           id="g50"
           transform="translate(3292.9231,1202.0681)"><path
             d="m 0,0 h -224.404 v 125.197 h 212.851 v 159.88 H -224.404 V 406.423 H 0 v 159.88 H -413.171 V -159.88 H 0 Z"
             style="fill:#fffffc;fill-opacity:1;fill-rule:nonzero;stroke:none"
             id="path52" /></g><g
           id="g54"
           transform="translate(3344.929,1608.4916)"><path
             d="M 0,0 H 156.029 V -566.303 H 344.796 V 0 H 500.825 V 159.88 H 0 Z"
             style="fill:#fffffc;fill-opacity:1;fill-rule:nonzero;stroke:none"
             id="path56" /></g><g
           id="g58"
           transform="translate(3897.7598,1608.4916)"><path
             d="M 0,0 H 156.028 V -566.303 H 344.796 V 0 H 500.824 V 159.88 H 0 Z"
             style="fill:#fffffc;fill-opacity:1;fill-rule:nonzero;stroke:none"
             id="path60" /></g><g
           id="g62"
           transform="translate(4871.4746,1608.4916)"><path
             d="M 0,0 V 159.88 H -413.171 V -566.303 H 0 v 159.88 h -224.403 v 125.197 h 212.851 v 159.88 H -224.403 V 0 Z"
             style="fill:#fffffc;fill-opacity:1;fill-rule:nonzero;stroke:none"
             id="path64" /></g><g
           id="g66"
           transform="translate(5138.2622,1442.8409)"><path
             d="M 0,0 H -18.3 V 181.066 H 0 c 61.639,0 130.98,-11.564 130.98,-90.538 C 130.98,11.553 61.639,0 0,0 M 327.45,102.092 C 327.45,257.155 218.622,325.53 75.123,325.53 H -207.068 V -400.653 H -18.3 v 279.307 h 1.919 L 161.8,-400.653 H 396.802 L 168.537,-103.057 C 271.593,-84.756 327.45,1.932 327.45,102.092"
             style="fill:#fffffc;fill-opacity:1;fill-rule:nonzero;stroke:none"
             id="path68" /></g><path
           d="m 5766.216,1768.371 h -188.768 v -726.183 h 188.768 z"
           style="fill:#fffffc;fill-opacity:1;fill-rule:nonzero;stroke:none"
           id="path70" /><g
           id="g72"
           transform="translate(6236.1997,1608.4916)"><path
             d="M 0,0 V 159.88 H -413.171 V -566.303 H 0 v 159.88 h -224.404 v 125.197 h 212.851 v 159.88 H -224.404 V 0 Z"
             style="fill:#fffffc;fill-opacity:1;fill-rule:nonzero;stroke:none"
             id="path74" /></g><g
           id="g76"
           transform="translate(373.674,322.7756)"><path
             d="m 0,0 c -69.352,-68.375 -148.326,-87.641 -243.67,-87.641 h -83.791 v 639.507 h 83.791 c 90.527,0 165.65,-16.37 235.002,-78.975 C 59.708,410.286 96.309,323.611 96.309,231.152 96.309,144.464 61.639,61.64 0,0 m 26.968,503.711 c -79.939,74.157 -163.73,91.492 -269.672,91.492 h -130.98 v -726.182 h 130.98 c 107.862,0 193.584,19.266 273.523,96.309 73.193,70.307 111.714,165.662 111.714,265.822 0,104.011 -39.487,201.286 -115.565,272.559"
             style="fill:#fffffc;fill-opacity:1;fill-rule:nonzero;stroke:none"
             id="path78" /></g><g
           id="g80"
           transform="translate(1044.0118,478.8043)"><path
             d="m 0,0 c 0,-65.49 0,-134.842 -37.567,-182.997 -35.636,-46.223 -106.909,-70.306 -162.765,-70.306 -55.857,0 -127.129,24.083 -162.765,70.306 -37.556,48.155 -37.556,117.507 -37.556,182.997 v 439.174 h -46.235 V -13.484 c 0,-74.158 0,-137.727 49.12,-198.401 49.12,-55.857 124.243,-84.757 197.436,-84.757 73.191,0 148.315,28.9 197.435,84.757 49.12,60.674 49.12,124.243 49.12,198.401 V 439.174 H 0 Z"
             style="fill:#fffffc;fill-opacity:1;fill-rule:nonzero;stroke:none"
             id="path82" /></g><g
           id="g84"
           transform="translate(1288.6477,819.7385)"><path
             d="m 0,0 c -69.341,-71.261 -106.909,-166.616 -106.909,-265.811 0,-107.873 36.602,-202.252 116.542,-274.489 75.123,-68.376 171.432,-106.909 272.558,-106.909 58.742,0 104.012,14.45 166.616,33.716 v 226.325 c -39.487,-47.19 -101.126,-77.044 -162.765,-77.044 -117.506,0 -196.481,82.825 -196.481,197.435 0,112.68 78.02,201.287 193.585,201.287 64.535,0 127.14,-27.923 165.661,-79.94 V 80.905 C 392.95,104.023 337.082,117.507 276.41,117.507 174.317,117.507 71.272,73.203 0,0"
             style="fill:#fffffc;fill-opacity:1;fill-rule:nonzero;stroke:none"
             id="path86" /></g><g
           id="g88"
           transform="translate(2214.1968,350.7101)"><path
             d="m 0,0 c -112.679,0 -205.138,91.493 -205.138,216.702 0,100.16 92.459,191.653 205.138,191.653 112.69,0 205.149,-91.493 205.149,-191.653 C 205.149,91.493 112.69,0 0,0 m 0,591.352 c -208.989,0 -401.607,-154.097 -401.607,-373.696 0,-234.991 168.536,-400.653 401.607,-400.653 233.071,0 401.619,165.662 401.619,400.653 C 401.619,437.255 209,591.352 0,591.352"
             style="fill:#fffffc;fill-opacity:1;fill-rule:nonzero;stroke:none"
             id="path90" /></g><path
           d="m 2689.041,191.796 h 188.768 v 726.182 h -188.768 z"
           style="fill:#fffffc;fill-opacity:1;fill-rule:nonzero;stroke:none"
           id="path92" /><g
           id="g94"
           transform="translate(3503.8203,473.9878)"><path
             d="m 0,0 h -1.92 l -345.761,443.991 h -188.768 v -726.182 h 188.768 v 444.956 h 1.93 L 0,-282.191 H 188.779 V 443.991 H 0 Z"
             style="fill:#fffffc;fill-opacity:1;fill-rule:nonzero;stroke:none"
             id="path96" /></g><g
           id="g98"
           transform="translate(4094.4248,835.4265)"><path
             d="M 0,0 243.361,-254.962 V 82.552 H 202.939 V -156.931 L -40.41,98.042 V -241.63 H 0 Z"
             style="fill:#fffffc;fill-opacity:1;fill-rule:nonzero;stroke:none"
             id="path100" /></g><g
           id="g102"
           transform="translate(4567.4009,630.7786)"><path
             d="M 0,0 H -133.708 V 122.535 H -3.867 v 36.971 h -129.841 v 90.723 H 0 V 287.2 H -174.13 V -36.982 H 0 Z"
             style="fill:#fffffc;fill-opacity:1;fill-rule:nonzero;stroke:none"
             id="path104" /></g><g
           id="g106"
           transform="translate(4609.5649,917.9786)"><path
             d="m 0,0 v -205.087 c 0,-71.367 44.289,-125.974 118.669,-125.974 74.379,0 118.668,54.607 118.668,125.974 V 0 h -40.422 v -191.328 c 0,-52.888 -15.906,-101.897 -78.246,-101.897 -62.341,0 -78.258,49.009 -78.258,101.897 V 0 Z"
             style="fill:#fffffc;fill-opacity:1;fill-rule:nonzero;stroke:none"
             id="path108" /></g><g
           id="g110"
           transform="translate(5053.3037,789.8571)"><path
             d="M 0,0 H -112.654 V 91.151 H 3.867 v 36.971 H -153.065 V -196.06 h 40.411 V -36.982 H 0 Z"
             style="fill:#fffffc;fill-opacity:1;fill-rule:nonzero;stroke:none"
             id="path112" /></g><g
           id="g114"
           transform="translate(4204.9326,224.4747)"><path
             d="m 0,0 c -70.086,0 -129.426,57.182 -129.426,131.134 0,71.379 53.315,131.134 129.426,131.134 76.099,0 129.414,-59.755 129.414,-131.134 C 129.414,57.182 70.074,0 0,0 m 0,300.104 c -92.871,0 -169.836,-76.099 -169.836,-168.97 0,-96.31 76.099,-168.97 169.836,-168.97 93.725,0 169.824,72.66 169.824,168.97 0,92.871 -76.953,168.97 -169.824,168.97"
             style="fill:#fffffc;fill-opacity:1;fill-rule:nonzero;stroke:none"
             id="path116" /></g><g
           id="g118"
           transform="translate(4393.7095,353.8887)"><path
             d="m 0,0 c 0,-93.724 76.527,-167.25 168.97,-167.25 28.372,0 60.194,8.172 85.126,22.785 v 47.728 c -24.078,-21.504 -54.596,-33.531 -86.418,-33.531 -72.233,0 -127.267,60.621 -127.267,131.561 0,71.806 55.461,132.426 128.132,132.426 30.518,0 62.342,-11.184 85.553,-31.822 v 46.874 C 229.591,163.811 200.782,170.69 172.41,170.69 76.954,170.69 0,95.883 0,0"
             style="fill:#fffffc;fill-opacity:1;fill-rule:nonzero;stroke:none"
             id="path120" /></g><g
           id="g122"
           transform="translate(4675.7847,353.8887)"><path
             d="m 0,0 c 0,-93.724 76.538,-167.25 168.97,-167.25 28.383,0 60.194,8.172 85.137,22.785 v 47.728 c -24.077,-21.504 -54.607,-33.531 -86.418,-33.531 -72.233,0 -127.267,60.621 -127.267,131.561 0,71.806 55.461,132.426 128.121,132.426 30.53,0 62.341,-11.184 85.564,-31.822 v 46.874 C 229.603,163.811 200.793,170.69 172.41,170.69 76.965,170.69 0,95.883 0,0"
             style="fill:#fffffc;fill-opacity:1;fill-rule:nonzero;stroke:none"
             id="path124" /></g><g
           id="g126"
           transform="translate(5038.6914,311.7593)"><path
             d="M 0,0 57.62,131.134 115.228,0 Z m -97.164,-118.242 h 43.422 l 36.971,81.259 H 132 l 36.97,-81.259 h 43.435 L 57.62,219.699 Z"
             style="fill:#fffffc;fill-opacity:1;fill-rule:nonzero;stroke:none"
             id="path128" /></g><g
           id="g130"
           transform="translate(5382.2529,385.2841)"><path
             d="m 0,0 -23.211,9.027 c -20.212,7.733 -45.143,21.065 -45.143,46.435 0,28.371 28.371,45.996 54.168,45.996 24.505,0 39.984,-10.319 52.022,-30.517 l 32.25,19.344 c -17.626,31.384 -47.29,49.01 -83.406,49.01 -49.021,0 -95.457,-31.385 -95.457,-83.833 0,-45.143 33.543,-66.219 70.514,-82.125 l 22.358,-9.465 c 27.944,-11.6 55.9,-26.652 55.9,-61.475 0,-33.969 -24.943,-63.206 -59.767,-63.206 -34.824,0 -63.207,25.797 -62.78,61.487 l -40.837,-8.6 c 6.879,-52.033 47.717,-90.724 100.178,-90.724 58.046,0 103.616,42.131 103.616,101.043 C 80.405,-43.434 46.009,-18.064 0,0"
             style="fill:#fffffc;fill-opacity:1;fill-rule:nonzero;stroke:none"
             id="path132" /></g><path
           d="m 5503.518,193.518 h 40.41 V 517.7 h -40.41 z"
           style="fill:#fffffc;fill-opacity:1;fill-rule:nonzero;stroke:none"
           id="path134" /><g
           id="g136"
           transform="translate(5749.4653,224.4747)"><path
             d="m 0,0 c -70.086,0 -129.426,57.182 -129.426,131.134 0,71.379 53.315,131.134 129.426,131.134 76.099,0 129.414,-59.755 129.414,-131.134 C 129.414,57.182 70.074,0 0,0 m 0,300.104 c -92.871,0 -169.836,-76.099 -169.836,-168.97 0,-96.31 76.1,-168.97 169.836,-168.97 93.725,0 169.824,72.66 169.824,168.97 0,92.871 -76.953,168.97 -169.824,168.97"
             style="fill:#fffffc;fill-opacity:1;fill-rule:nonzero;stroke:none"
             id="path138" /></g><g
           id="g140"
           transform="translate(6195.7778,278.2164)"><path
             d="M 0,0 -243.35,254.973 V -84.699 h 40.411 v 241.63 L 40.422,-98.03 V 239.483 H 0 Z"
             style="fill:#fffffc;fill-opacity:1;fill-rule:nonzero;stroke:none"
             id="path142" /></g></g></g></g></svg>
